<svg width="16" height="17" viewBox="0 0 16 17" fill="none" xmlns="http://www.w3.org/2000/svg">
<path d="M5.026 15.9553C11.064 15.9553 14.367 10.9523 14.367 6.62128C14.367 6.48128 14.367 6.33928 14.361 6.19928C15.0041 5.73377 15.5591 5.15743 16 4.49728C15.3993 4.76213 14.7628 4.93669 14.111 5.01528C14.7975 4.60492 15.3117 3.95925 15.558 3.19828C14.913 3.58041 14.207 3.84866 13.471 3.99128C12.9762 3.46431 12.3214 3.1152 11.6081 2.99804C10.8948 2.88088 10.1627 3.0022 9.52534 3.34322C8.88796 3.68424 8.38081 4.22591 8.08245 4.88434C7.78409 5.54277 7.71118 6.28122 7.875 6.98528C6.56974 6.91983 5.29282 6.58075 4.12704 5.99003C2.96127 5.3993 1.93268 4.57013 1.108 3.55628C0.68934 4.27937 0.561574 5.13468 0.750646 5.94855C0.939718 6.76241 1.43145 7.47381 2.126 7.93828C1.60554 7.9206 1.09652 7.78084 0.64 7.53028V7.57528C0.640897 8.33276 0.903307 9.0667 1.38287 9.65304C1.86244 10.2394 2.52975 10.6422 3.272 10.7933C2.99026 10.8709 2.69923 10.9096 2.407 10.9083C2.20098 10.9089 1.99538 10.8898 1.793 10.8513C2.00279 11.5033 2.41127 12.0734 2.96125 12.4818C3.51122 12.8901 4.17513 13.1161 4.86 13.1283C3.69656 14.0421 2.2594 14.5377 0.78 14.5353C0.519321 14.5364 0.258823 14.5214 0 14.4903C1.50151 15.4475 3.2453 15.9558 5.026 15.9553Z" fill="#4A8780"/>
</svg>
