<svg width="17" height="16" viewBox="0 0 17 16" fill="none" xmlns="http://www.w3.org/2000/svg">
<path d="M6.53664 5.31567C7.59471 5.31567 8.63422 5.31567 9.69935 5.31567C9.69935 5.79072 9.69935 6.26106 9.69935 6.75153C9.74302 6.72879 9.76471 6.72513 9.7723 6.71284C10.4779 5.57947 11.5334 5.08664 12.8357 5.05658C13.5648 5.03984 14.2773 5.13135 14.9442 5.44979C15.8083 5.86235 16.2928 6.57976 16.561 7.46894C16.777 8.18426 16.8515 8.92127 16.8564 9.66169C16.8703 11.714 16.8651 13.7664 16.8669 15.8187C16.8669 15.8501 16.8627 15.8815 16.8593 15.9262C15.7607 15.9262 14.6705 15.9262 13.5481 15.9262C13.5481 15.8569 13.5481 15.7824 13.5481 15.7076C13.5473 13.9669 13.5528 12.2265 13.5413 10.4858C13.5387 10.0918 13.5076 9.69228 13.4362 9.30534C13.2349 8.21302 12.5232 7.8449 11.5083 7.9636C10.5817 8.0721 10.0711 8.61277 9.92655 9.6128C9.87374 9.97778 9.85021 10.3496 9.84838 10.7185C9.84027 12.381 9.84472 14.0438 9.84472 15.7066C9.84472 15.784 9.84472 15.8614 9.84472 15.9529C8.73749 15.9529 7.64256 15.9529 6.53638 15.9529C6.53664 12.4095 6.53664 8.87264 6.53664 5.31567Z" fill="white"/>
<path d="M1.13989 15.9555C1.13989 12.4043 1.13989 8.86772 1.13989 5.31885C2.23901 5.31885 3.32924 5.31885 4.4349 5.31885C4.4349 8.86327 4.4349 12.4033 4.4349 15.9555C3.34049 15.9555 2.25052 15.9555 1.13989 15.9555Z" fill="white"/>
<path d="M4.70497 1.91046C4.71099 2.96854 3.85083 3.84569 2.80138 3.8517C1.74619 3.85772 0.867205 2.97926 0.866943 1.91752C0.866682 0.873046 1.72606 0.00948876 2.77472 7.66963e-05C3.832 -0.00933537 4.69896 0.848731 4.70497 1.91046Z" fill="white"/>
</svg>
