<svg width="112" height="19" viewBox="0 0 112 19" fill="none" xmlns="http://www.w3.org/2000/svg">
<path d="M18.6552 6.36043L13.1196 5.77136L10.7642 0.707233C10.6467 0.353955 10.1751 0.118164 9.82183 0.118164C9.46856 0.118164 8.99697 0.353955 8.87949 0.707233L6.52409 5.77136L0.98842 6.36043C0.517657 6.36043 0.281865 6.71371 0.0460735 7.06699C-0.0714102 7.42027 0.0460738 7.89185 0.281866 8.12682L4.40459 11.8962L3.22646 17.4319C3.10897 17.7852 3.34394 18.2567 3.69722 18.4917C3.93301 18.7267 4.1688 18.845 4.28629 18.845C4.52208 18.845 4.63957 18.845 4.75705 18.7275L9.70382 15.9006L14.533 18.7275C14.8863 18.9633 15.3579 18.9633 15.7112 18.61C16.0644 18.3742 16.1819 17.9035 16.1819 17.5502L15.0038 12.0145L19.1265 8.24513C19.4798 8.00934 19.5973 7.53857 19.3623 7.18529C19.3623 6.71371 19.009 6.47792 18.6558 6.36044L18.6552 6.36043Z" fill="#4A8780"/>
<path d="M41.6224 6.36043L36.0867 5.77136L33.7313 0.707233C33.6139 0.353955 33.1423 0.118164 32.789 0.118164C32.3182 0.118164 31.9641 0.353955 31.8466 0.707233L29.4913 5.77136L23.9556 6.36043C23.4848 6.36043 23.249 6.71371 23.0132 7.06699C22.8958 7.42027 23.0132 7.89185 23.249 8.12682L27.3718 11.8962L26.1936 17.4319C26.0761 17.7852 26.3111 18.2567 26.6644 18.4917C26.9002 18.6092 27.0177 18.7275 27.2535 18.7275C27.4892 18.7275 27.6067 18.7275 27.7242 18.61L32.671 15.7831L37.5002 18.61C37.8535 18.8458 38.325 18.8458 38.6783 18.4925C39.0316 18.2567 39.1491 17.786 39.1491 17.4327L37.9709 11.897L42.0937 8.12764C42.447 7.89185 42.5644 7.42109 42.3295 7.06781C42.4478 6.71371 42.0945 6.47792 41.6229 6.36044L41.6224 6.36043Z" fill="#4A8780"/>
<path d="M64.9429 6.47806H64.8254L59.2898 5.88899L56.9344 0.824863C56.6986 0.235793 56.3445 0 55.8737 0C55.403 0 55.0489 0.235794 54.9314 0.589072L52.576 5.6532L47.0403 6.24227C46.5695 6.24227 46.3337 6.59555 46.098 6.94883C45.9805 7.30211 46.098 7.77369 46.3337 8.00866L50.4565 11.778L49.2783 17.3137C49.1609 17.667 49.3958 18.1386 49.7491 18.3736C49.9849 18.491 50.1024 18.6093 50.3382 18.6093C50.574 18.6093 50.6914 18.6093 50.8089 18.4919L55.7557 15.6649L60.5849 18.4919C60.9382 18.7277 61.4098 18.7276 61.763 18.3744C62.1163 18.1386 62.2338 17.6678 62.2338 17.3145L61.0557 11.7789L65.2966 8.24441C65.5324 8.00862 65.6499 7.77365 65.6499 7.41955C65.6499 6.94879 65.4141 6.59551 64.9433 6.47802L64.9429 6.47806Z" fill="#4A8780"/>
<path d="M87.7923 6.36043L82.2566 5.77136L79.9012 0.707233C79.7837 0.353955 79.3121 0.118164 78.9589 0.118164C78.4881 0.118164 78.134 0.353955 78.0165 0.707233L75.6611 5.77136L70.1255 6.36043C69.5364 6.36043 69.1831 6.83119 69.1831 7.42026C69.1831 7.77354 69.3006 8.00933 69.5364 8.24513L73.6591 12.0145L72.481 17.5502C72.3635 17.9035 72.5985 18.375 72.9517 18.61C73.1875 18.7275 73.305 18.8458 73.5408 18.8458C73.7766 18.8458 73.8941 18.8458 74.0116 18.7283L78.9583 15.9014L83.7875 18.7283C84.1408 18.9641 84.6124 18.9641 84.9657 18.6108C85.319 18.3751 85.4364 17.9043 85.4364 17.551L84.2583 12.0153L88.381 8.24595C88.7343 8.01016 88.8518 7.53939 88.6168 7.18612C88.6168 6.71371 88.2635 6.47792 87.7928 6.36044L87.7923 6.36043Z" fill="#4A8780"/>
<path d="M111.819 7.18496C111.702 6.83168 111.349 6.47841 110.877 6.47841L105.341 5.77185L102.986 0.707721C102.869 0.354443 102.397 0.118652 102.044 0.118652C101.573 0.118652 101.219 0.354443 101.101 0.707721L98.7459 5.77185L93.2102 6.36092C92.7395 6.36092 92.5037 6.7142 92.2679 7.06747C92.1504 7.42075 92.2679 7.89234 92.5037 8.12731L96.6264 11.8967L95.4483 17.4324C95.3308 17.7856 95.5657 18.2572 95.919 18.4922C96.1548 18.6097 96.2723 18.728 96.5081 18.728C96.7439 18.728 96.8614 18.728 96.9789 18.6105L101.926 15.7836L106.755 18.6105C107.108 18.8463 107.58 18.8463 107.933 18.493C108.286 18.2572 108.404 17.7865 108.404 17.4332L107.226 11.8975L111.348 8.12813C111.82 8.00983 111.937 7.53824 111.82 7.18497L111.819 7.18496Z" fill="#4A8780"/>
</svg>
