<svg width="94" height="95" viewBox="0 0 94 95" fill="none" xmlns="http://www.w3.org/2000/svg">
<g opacity="0.6">
<path d="M2.67633 5.96019C4.15443 5.96019 5.35266 4.76166 5.35266 3.2832C5.35266 1.80473 4.15443 0.606201 2.67633 0.606201C1.19823 0.606201 0 1.80473 0 3.2832C0 4.76166 1.19823 5.96019 2.67633 5.96019Z" fill="white"/>
<path d="M2.67633 23.689C4.15443 23.689 5.35266 22.4905 5.35266 21.012C5.35266 19.5335 4.15443 18.335 2.67633 18.335C1.19823 18.335 0 19.5335 0 21.012C0 22.4905 1.19823 23.689 2.67633 23.689Z" fill="white"/>
<path d="M5.35388 38.7424C5.35388 37.2641 4.15549 36.0642 2.67755 36.0642C1.19839 36.0654 0 37.2641 0 38.7424C0 40.2207 1.19839 41.4194 2.67633 41.4194C4.15549 41.4206 5.35388 40.2219 5.35388 38.7424Z" fill="white"/>
<path d="M5.35388 56.4714C5.35388 54.9931 4.15549 53.7944 2.67755 53.7944C1.19839 53.7944 0 54.9931 0 56.4714C0 57.9497 1.19839 59.1484 2.67633 59.1484C4.15549 59.1496 5.35388 57.9509 5.35388 56.4714Z" fill="white"/>
<path d="M2.67633 76.8772C4.15443 76.8772 5.35266 75.6787 5.35266 74.2002C5.35266 72.7217 4.15443 71.5232 2.67633 71.5232C1.19823 71.5232 0 72.7217 0 74.2002C0 75.6787 1.19823 76.8772 2.67633 76.8772Z" fill="white"/>
<path d="M2.67633 94.606C4.15443 94.606 5.35266 93.4075 5.35266 91.929C5.35266 90.4505 4.15443 89.252 2.67633 89.252C1.19823 89.252 0 90.4505 0 91.929C0 93.4075 1.19823 94.606 2.67633 94.606Z" fill="white"/>
<path d="M20.4056 5.96019C21.8837 5.96019 23.0819 4.76166 23.0819 3.2832C23.0819 1.80473 21.8837 0.606201 20.4056 0.606201C18.9275 0.606201 17.7292 1.80473 17.7292 3.2832C17.7292 4.76166 18.9275 5.96019 20.4056 5.96019Z" fill="white"/>
<path d="M20.4056 23.689C21.8837 23.689 23.0819 22.4905 23.0819 21.012C23.0819 19.5335 21.8837 18.335 20.4056 18.335C18.9275 18.335 17.7292 19.5335 17.7292 21.012C17.7292 22.4905 18.9275 23.689 20.4056 23.689Z" fill="white"/>
<path d="M23.0831 38.7424C23.0831 37.2641 21.8847 36.0642 20.4068 36.0642C18.9289 36.0642 17.7305 37.2629 17.7305 38.7424C17.7305 40.2207 18.9289 41.4194 20.4068 41.4194C21.8835 41.4206 23.0831 40.2219 23.0831 38.7424Z" fill="white"/>
<path d="M23.0831 56.4714C23.0831 54.9931 21.8847 53.7944 20.4068 53.7944C18.9289 53.7944 17.7305 54.9931 17.7305 56.4714C17.7305 57.9497 18.9289 59.1484 20.4068 59.1484C21.8835 59.1496 23.0831 57.9509 23.0831 56.4714Z" fill="white"/>
<path d="M20.4056 76.8772C21.8837 76.8772 23.0819 75.6787 23.0819 74.2002C23.0819 72.7217 21.8837 71.5232 20.4056 71.5232C18.9275 71.5232 17.7292 72.7217 17.7292 74.2002C17.7292 75.6787 18.9275 76.8772 20.4056 76.8772Z" fill="white"/>
<path d="M20.4056 94.606C21.8837 94.606 23.0819 93.4075 23.0819 91.929C23.0819 90.4505 21.8837 89.252 20.4056 89.252C18.9275 89.252 17.7292 90.4505 17.7292 91.929C17.7292 93.4075 18.9275 94.606 20.4056 94.606Z" fill="white"/>
<path d="M40.8112 3.2832C40.8112 1.80489 39.6127 0.606201 38.1348 0.606201C36.6568 0.606201 35.4584 1.80489 35.4584 3.2832C35.4584 4.7615 36.6568 5.96019 38.1348 5.96019C39.6127 5.96141 40.8112 4.76272 40.8112 3.2832Z" fill="white"/>
<path d="M40.8112 21.012C40.8112 19.5337 39.6127 18.335 38.1348 18.335C36.6568 18.335 35.4584 19.5337 35.4584 21.012C35.4584 22.4903 36.6568 23.689 38.1348 23.689C39.6127 23.6902 40.8112 22.4915 40.8112 21.012Z" fill="white"/>
<path d="M40.8124 38.7424C40.8124 37.2641 39.614 36.0642 38.136 36.0642C36.6581 36.0642 35.4597 37.2629 35.4597 38.7424C35.4597 40.2207 36.6581 41.4194 38.136 41.4194C39.614 41.4206 40.8124 40.2219 40.8124 38.7424Z" fill="white"/>
<path d="M40.8124 56.4714C40.8124 54.9931 39.614 53.7944 38.136 53.7944C36.6581 53.7944 35.4597 54.9931 35.4597 56.4714C35.4597 57.9497 36.6581 59.1484 38.136 59.1484C39.614 59.1496 40.8124 57.9509 40.8124 56.4714Z" fill="white"/>
<path d="M40.8112 74.2002C40.8112 72.7219 39.6127 71.5232 38.1348 71.5232C36.6568 71.5232 35.4584 72.7219 35.4584 74.2002C35.4584 75.6785 36.6568 76.8772 38.1348 76.8772C39.6127 76.8784 40.8112 75.6797 40.8112 74.2002Z" fill="white"/>
<path d="M40.8112 91.929C40.8112 90.4507 39.6127 89.252 38.1348 89.252C36.6568 89.252 35.4584 90.4507 35.4584 91.929C35.4584 93.4073 36.6568 94.606 38.1348 94.606C39.6127 94.6072 40.8112 93.4085 40.8112 91.929Z" fill="white"/>
<path d="M55.864 5.96019C57.342 5.96019 58.5403 4.76166 58.5403 3.2832C58.5403 1.80473 57.342 0.606201 55.864 0.606201C54.3859 0.606201 53.1876 1.80473 53.1876 3.2832C53.1876 4.76166 54.3859 5.96019 55.864 5.96019Z" fill="white"/>
<path d="M55.864 23.689C57.342 23.689 58.5403 22.4905 58.5403 21.012C58.5403 19.5335 57.342 18.335 55.864 18.335C54.3859 18.335 53.1876 19.5335 53.1876 21.012C53.1876 22.4905 54.3859 23.689 55.864 23.689Z" fill="white"/>
<path d="M58.5416 38.7424C58.5416 37.2641 57.3432 36.0642 55.8652 36.0642C54.3873 36.0642 53.1888 37.2629 53.1888 38.7424C53.1888 40.2207 54.3873 41.4194 55.8652 41.4194C57.3432 41.4206 58.5416 40.2219 58.5416 38.7424Z" fill="white"/>
<path d="M58.5416 56.4714C58.5416 54.9931 57.3432 53.7944 55.8652 53.7944C54.3873 53.7944 53.1888 54.9931 53.1888 56.4714C53.1888 57.9497 54.3873 59.1484 55.8652 59.1484C57.3432 59.1496 58.5416 57.9509 58.5416 56.4714Z" fill="white"/>
<path d="M55.864 76.8772C57.342 76.8772 58.5403 75.6787 58.5403 74.2002C58.5403 72.7217 57.342 71.5232 55.864 71.5232C54.3859 71.5232 53.1876 72.7217 53.1876 74.2002C53.1876 75.6787 54.3859 76.8772 55.864 76.8772Z" fill="white"/>
<path d="M55.864 94.606C57.342 94.606 58.5403 93.4075 58.5403 91.929C58.5403 90.4505 57.342 89.252 55.864 89.252C54.3859 89.252 53.1876 90.4505 53.1876 91.929C53.1876 93.4075 54.3859 94.606 55.864 94.606Z" fill="white"/>
<path d="M73.5932 5.96019C75.0713 5.96019 76.2695 4.76166 76.2695 3.2832C76.2695 1.80473 75.0713 0.606201 73.5932 0.606201C72.1151 0.606201 70.9169 1.80473 70.9169 3.2832C70.9169 4.76166 72.1151 5.96019 73.5932 5.96019Z" fill="white"/>
<path d="M73.5932 23.689C75.0713 23.689 76.2695 22.4905 76.2695 21.012C76.2695 19.5335 75.0713 18.335 73.5932 18.335C72.1151 18.335 70.9169 19.5335 70.9169 21.012C70.9169 22.4905 72.1151 23.689 73.5932 23.689Z" fill="white"/>
<path d="M76.2708 38.7424C76.2708 37.2641 75.0724 36.0642 73.5944 36.0642C72.1165 36.0642 70.9181 37.2629 70.9181 38.7424C70.9181 40.2207 72.1165 41.4194 73.5944 41.4194C75.0724 41.4206 76.2708 40.2219 76.2708 38.7424Z" fill="white"/>
<path d="M76.2708 56.4714C76.2708 54.9931 75.0724 53.7944 73.5944 53.7944C72.1165 53.7944 70.9181 54.9931 70.9181 56.4714C70.9181 57.9497 72.1165 59.1484 73.5944 59.1484C75.0724 59.1496 76.2708 57.9509 76.2708 56.4714Z" fill="white"/>
<path d="M73.5932 76.8772C75.0713 76.8772 76.2695 75.6787 76.2695 74.2002C76.2695 72.7217 75.0713 71.5232 73.5932 71.5232C72.1151 71.5232 70.9169 72.7217 70.9169 74.2002C70.9169 75.6787 72.1151 76.8772 73.5932 76.8772Z" fill="white"/>
<path d="M73.5932 94.606C75.0713 94.606 76.2695 93.4075 76.2695 91.929C76.2695 90.4505 75.0713 89.252 73.5932 89.252C72.1151 89.252 70.9169 90.4505 70.9169 91.929C70.9169 93.4075 72.1151 94.606 73.5932 94.606Z" fill="white"/>
<path d="M93.9988 3.2832C93.9988 1.80489 92.8004 0.606201 91.3224 0.606201C89.8444 0.606201 88.646 1.80489 88.646 3.2832C88.646 4.7615 89.8444 5.96019 91.3224 5.96019C92.8004 5.96141 93.9988 4.76272 93.9988 3.2832Z" fill="white"/>
<path d="M93.9988 21.012C93.9988 19.5337 92.8004 18.335 91.3224 18.335C89.8444 18.335 88.646 19.5337 88.646 21.012C88.646 22.4903 89.8444 23.689 91.3224 23.689C92.8004 23.6902 93.9988 22.4915 93.9988 21.012Z" fill="white"/>
<path d="M94 38.7424C94 37.2641 92.8016 36.0642 91.3237 36.0642C89.8457 36.0642 88.6473 37.2629 88.6473 38.7424C88.6473 40.2207 89.8457 41.4194 91.3237 41.4194C92.8016 41.4206 94 40.2219 94 38.7424Z" fill="white"/>
<path d="M94 56.4714C94 54.9931 92.8016 53.7944 91.3237 53.7944C89.8457 53.7944 88.6473 54.9931 88.6473 56.4714C88.6473 57.9497 89.8457 59.1484 91.3237 59.1484C92.8016 59.1496 94 57.9509 94 56.4714Z" fill="white"/>
<path d="M93.9988 74.2002C93.9988 72.7219 92.8004 71.5232 91.3224 71.5232C89.8444 71.5232 88.646 72.7219 88.646 74.2002C88.646 75.6785 89.8444 76.8772 91.3224 76.8772C92.8004 76.8784 93.9988 75.6797 93.9988 74.2002Z" fill="white"/>
<path d="M93.9988 91.929C93.9988 90.4507 92.8004 89.252 91.3224 89.252C89.8444 89.252 88.646 90.4507 88.646 91.929C88.646 93.4073 89.8444 94.606 91.3224 94.606C92.8004 94.6072 93.9988 93.4085 93.9988 91.929Z" fill="white"/>
</g>
</svg>
