<svg width="27" height="24" viewBox="0 0 27 24" fill="none" xmlns="http://www.w3.org/2000/svg">
<path d="M26.6503 3.72937C26.4936 4.28586 26.0955 4.58308 25.5834 4.80627C24.4513 5.29977 23.4344 5.9696 22.6345 6.92859C21.7194 8.02542 21.2531 9.31905 21.0367 10.7101C20.9481 11.2801 20.9123 11.8584 20.8488 12.4682C20.992 12.4682 21.0846 12.4682 21.1775 12.4682C22.3828 12.4682 23.5881 12.4669 24.7935 12.4687C25.7053 12.4701 26.2301 12.9935 26.2306 13.9048C26.232 16.6191 26.232 19.3332 26.2306 22.0476C26.2301 22.9691 25.7016 23.4955 24.7736 23.496C22.0681 23.4976 19.3624 23.4976 16.6569 23.496C15.7265 23.4955 15.2004 22.9718 15.2007 22.0484C15.2012 19.6549 15.1877 17.2615 15.2106 14.8684C15.2295 12.8817 15.3616 10.9032 15.8008 8.9556C16.3309 6.60444 17.5362 4.65228 19.284 3.01941C20.5895 1.79955 22.0869 0.874216 23.7209 0.162918C24.4532 -0.155846 25.1456 0.0816118 25.4935 0.793717C25.8922 1.60974 26.2656 2.43815 26.6501 3.26118C26.6503 3.41706 26.6503 3.57321 26.6503 3.72937Z" fill="white"/>
<path d="M5.71711 12.4683C5.84553 12.4683 5.93949 12.4683 6.03372 12.4683C7.23932 12.4683 8.44519 12.4651 9.65079 12.4694C10.4945 12.4724 11.0308 13.0084 11.0319 13.8565C11.0354 16.6061 11.0357 19.356 11.0317 22.1056C11.0306 22.9485 10.4932 23.4924 9.64648 23.4942C6.89687 23.5004 4.14698 23.4999 1.39737 23.4945C0.535574 23.4929 0.00412057 22.9504 0.00412057 22.0892C0.00412057 19.6085 -0.0112254 17.1273 0.0173127 14.6469C0.0383124 12.8251 0.194464 11.0137 0.561958 9.22173C1.05734 6.80595 2.22551 4.78245 4.00295 3.08874C5.3445 1.81045 6.88475 0.84608 8.58357 0.125899C9.29298 -0.174828 9.96901 0.0731304 10.3123 0.763428C10.6633 1.4688 11.0031 2.18037 11.3305 2.89705C11.6665 3.63204 11.3954 4.34522 10.6458 4.68552C9.7574 5.08883 8.91311 5.55782 8.17192 6.19966C6.99756 7.21653 6.34037 8.52847 5.9928 10.0154C5.80704 10.8102 5.70984 11.6162 5.71711 12.4683Z" fill="white"/>
</svg>
