<svg width="72" height="72" viewBox="0 0 72 72" fill="none" xmlns="http://www.w3.org/2000/svg">
<path d="M57.5005 0C58.0113 0.326164 58.3826 0.743514 58.1584 1.39036C57.9366 2.02976 57.3913 2.1148 56.7849 2.11458C38.8849 2.10779 20.9847 2.10911 3.08477 2.10911C2.78648 2.10911 2.48819 2.10911 2.15002 2.10911C2.15002 24.7128 2.15002 47.244 2.15002 69.8282C24.702 69.8282 47.2466 69.8282 69.8316 69.8282C69.8316 57.3739 69.8316 44.9405 69.8316 32.4465C69.0359 32.4465 68.2337 32.4465 67.3307 32.4465C67.3307 33.1157 67.3323 33.7854 67.3305 34.455C67.3259 36.1763 66.472 37.0507 64.7393 37.0551C60.4752 37.0656 56.2111 37.0588 51.9468 37.0588C51.6695 37.0588 51.3921 37.0588 51.0703 37.0588C51.0703 37.9043 51.0703 38.6916 51.0703 39.6041C51.3298 39.6041 51.597 39.6041 51.8642 39.6041C56.1048 39.6041 60.3457 39.6026 64.5863 39.6048C66.5224 39.6059 67.3303 40.4081 67.3305 42.3224C67.3312 49.7505 67.3312 57.1786 67.3305 64.6067C67.3303 66.5157 66.5045 67.339 64.5898 67.3392C55.6163 67.3397 46.643 67.3397 37.6694 67.3392C35.7546 67.3392 34.9382 66.524 34.9362 64.6045C34.9333 61.9332 34.9353 59.2618 34.9353 56.5905C34.9353 56.3139 34.9353 56.0373 34.9353 55.7205C34.0637 55.7205 33.2578 55.7205 32.3763 55.7205C32.3763 56.0077 32.3763 56.2595 32.3763 56.5114C32.3763 59.2531 32.3794 61.9946 32.375 64.7363C32.3722 66.4831 31.5264 67.3379 29.8014 67.3383C22.2804 67.3403 14.7598 67.3403 7.23884 67.3383C5.52387 67.3379 4.65159 66.4596 4.65115 64.7356C4.64939 57.2137 4.64939 49.692 4.65137 42.17C4.6518 40.4827 5.50809 39.6083 7.19523 39.607C14.7396 39.6006 22.2837 39.6011 29.8281 39.6068C31.5367 39.6081 32.3656 40.4496 32.3755 42.1503C32.3794 42.8243 32.3761 43.4984 32.3761 44.2178C33.2374 44.2178 34.0205 44.2178 34.9353 44.2178C34.9353 43.8044 34.959 43.3934 34.9314 42.9859C34.7633 40.4947 35.572 39.4066 38.3458 39.6002C38.7348 39.6274 39.1271 39.6039 39.5606 39.6039C39.5606 38.7291 39.5606 37.9457 39.5606 37.0582C38.8606 37.0582 38.1897 37.0647 37.5193 37.0569C35.7822 37.0367 34.9493 36.1948 34.9355 34.4537C34.9174 32.1841 34.9174 32.1841 32.3761 32.4458C32.3761 33.0923 32.3781 33.7593 32.3757 34.4261C32.3695 36.2165 31.5514 37.0402 29.7597 37.0571C29.4086 37.0604 29.0549 37.0731 28.7064 37.0387C28.0281 36.972 27.6516 36.554 27.6787 35.9414C27.7044 35.3601 28.0846 35.0019 28.7434 34.9567C29.0001 34.9392 29.2587 34.9545 29.5162 34.9482C29.7444 34.9425 29.9723 34.9276 30.2675 34.9136C30.2675 33.8018 30.2618 32.751 30.2691 31.7001C30.2765 30.6142 30.6151 30.2822 31.7151 30.2782C33.0505 30.2734 34.3861 30.269 35.7215 30.28C36.681 30.2879 37.0279 30.6379 37.0422 31.6061C37.0555 32.5197 37.0647 33.4344 37.0382 34.3474C37.0251 34.8042 37.1807 34.9697 37.6418 34.9567C38.5783 34.9306 39.5161 34.9392 40.4531 34.9534C41.3302 34.9668 41.6962 35.3195 41.7076 36.198C41.726 37.6037 41.7238 39.0101 41.7087 40.4158C41.6988 41.3264 41.3264 41.7031 40.4197 41.7189C39.3254 41.738 38.2303 41.7235 37.0455 41.7235C37.0455 42.8265 37.0494 43.85 37.0444 44.8734C37.0387 46.0496 36.7106 46.3782 35.5402 46.3812C34.2283 46.3847 32.9161 46.3907 31.6042 46.3788C30.662 46.3703 30.2826 45.9915 30.2708 45.0496C30.2574 43.9758 30.2677 42.9017 30.2677 41.7768C26.3081 41.7768 22.4089 41.7768 18.4148 41.7768C18.4148 42.0201 18.4148 42.2689 18.4148 42.5177C18.4148 45.189 18.415 47.8604 18.4148 50.5317C18.4146 52.5897 17.6466 53.3499 15.5648 53.3506C12.9172 53.3515 10.2697 53.3508 7.62216 53.3508C7.36837 53.3508 7.11458 53.3508 6.81015 53.3508C6.81015 57.3139 6.81015 61.212 6.81015 65.1703C10.3295 65.1703 13.8491 65.1703 17.4568 65.1703C17.4568 64.4235 17.4592 63.6815 17.4562 62.9395C17.4531 62.1701 17.7209 61.5375 18.3072 61.0154C18.4847 60.8574 18.6083 60.5549 18.6215 60.3111C18.667 59.4699 18.6123 58.6225 18.669 57.7825C18.8321 55.3654 20.8486 53.5386 23.2682 53.577C25.669 53.6151 27.6279 55.5449 27.7083 57.9572C27.7223 58.3785 27.7118 58.8007 27.718 59.2224C27.7296 60.0402 27.5805 60.8491 28.4243 61.4856C28.7616 61.7399 28.8232 62.4518 28.8758 62.9693C28.9486 63.685 28.894 64.4134 28.894 65.183C29.3472 65.183 29.7354 65.183 30.22 65.183C30.2349 64.9375 30.2649 64.6696 30.2651 64.402C30.2684 61.3089 30.266 58.2159 30.268 55.1228C30.2688 53.8858 30.5761 53.5777 31.7949 53.5766C33.0601 53.5755 34.3252 53.5746 35.5904 53.5768C36.7141 53.5788 37.0419 53.9047 37.0435 55.0491C37.0479 58.1422 37.0452 61.2353 37.0452 64.3284C37.0452 64.6019 37.0452 64.8752 37.0452 65.1893C43.3634 65.1893 49.5846 65.1893 55.8563 65.1893C55.8563 57.3866 55.8563 49.5975 55.8563 41.7135C55.0432 41.7135 54.2542 41.7135 53.4652 41.7135C52.3641 41.7132 51.2626 41.7259 50.1617 41.7086C49.2883 41.695 48.9247 41.3226 48.9188 40.4561C48.9094 39.0971 48.914 37.7379 48.9166 36.3789C48.9188 35.2726 49.2298 34.9524 50.3298 34.9515C54.9923 34.948 59.6547 34.9499 64.3172 34.9499C64.5922 34.9499 64.8675 34.9499 65.2213 34.9499C65.2213 33.7893 65.2175 32.7183 65.2224 31.6473C65.2267 30.6381 65.564 30.2879 66.5641 30.2804C67.9229 30.2703 69.282 30.2697 70.6408 30.2806C71.6281 30.2885 71.9788 30.6537 71.979 31.6591C71.9808 44.2892 71.9814 56.9195 71.9786 69.5496C71.9782 71.0938 71.0778 71.989 69.5272 71.9893C47.1755 71.9914 24.8239 71.9873 2.4722 72C1.21484 72.0007 0.477563 71.3737 0 70.3034C0 47.4316 0 24.5596 0 1.68781C0.322613 0.885552 0.884774 0.323095 1.68714 0.000438569C20.2917 1.77247e-07 38.8961 0 57.5005 0ZM65.1763 60.5374C65.1763 55.7773 65.1763 51.1053 65.1763 46.4216C62.7797 46.4216 60.429 46.4216 58.0813 46.4216C58.0813 51.1549 58.0813 55.8409 58.0813 60.5374C60.4772 60.5374 62.808 60.5374 65.1763 60.5374ZM6.79854 41.7542C6.79854 44.9521 6.79854 48.0544 6.79854 51.1805C9.97645 51.1805 13.1149 51.1805 16.2556 51.1805C16.2556 47.9974 16.2556 44.8758 16.2556 41.7652C15.0221 41.7652 13.8401 41.7652 12.5955 41.7652C12.5955 42.467 12.6003 43.1178 12.5944 43.7686C12.5858 44.716 12.2185 45.1932 11.517 45.1818C10.838 45.1708 10.4965 44.7178 10.4882 43.8011C10.4823 43.1284 10.4871 42.4557 10.4871 41.7542C9.21419 41.7542 8.03157 41.7542 6.79854 41.7542ZM25.6017 60.5352C25.6017 59.6614 25.626 58.8254 25.5958 57.9916C25.5533 56.8218 24.6648 55.8691 23.51 55.7025C22.3788 55.5392 21.1349 56.2231 20.9054 57.35C20.6967 58.3748 20.7607 59.4552 20.7033 60.5352C22.4233 60.5352 23.9774 60.5352 25.6017 60.5352ZM26.7284 65.2086C26.7284 64.3354 26.7284 63.5342 26.7284 62.7346C24.3237 62.7346 21.9771 62.7346 19.622 62.7346C19.622 63.5864 19.622 64.3875 19.622 65.2086C22.01 65.2086 24.3419 65.2086 26.7284 65.2086ZM58.042 44.218C60.4616 44.218 62.8104 44.218 65.1619 44.218C65.1619 43.3684 65.1619 42.5672 65.1619 41.775C62.7532 41.775 60.4051 41.775 58.042 41.775C58.042 42.6049 58.042 43.373 58.042 44.218ZM65.1952 62.7267C62.7907 62.7267 60.4401 62.7267 58.0705 62.7267C58.0705 63.571 58.0705 64.3724 58.0705 65.1712C60.4735 65.1712 62.8214 65.1712 65.1952 65.1712C65.1952 64.345 65.1952 63.5776 65.1952 62.7267Z" fill="#4A8780"/>
<path d="M70.2938 0C71.5518 0.52651 72.0095 1.46379 71.9998 2.82588C71.9564 9.05873 71.981 15.2918 71.9805 21.5249C71.9805 22.7706 71.6888 23.068 70.465 23.0698C69.1528 23.0715 67.8409 23.0752 66.529 23.0682C65.5769 23.063 65.2243 22.7079 65.2236 21.7454C65.2201 17.059 65.2219 12.3723 65.2219 7.6859C65.2219 7.40972 65.2219 7.13353 65.2219 6.80978C63.5727 6.80978 61.9944 6.80978 60.3255 6.80978C60.3255 7.58792 60.3329 8.35292 60.3237 9.11791C60.3069 10.5157 59.4388 11.4059 58.0429 11.4101C54.2005 11.4217 50.358 11.4223 46.5156 11.4094C45.1605 11.4048 44.2876 10.5129 44.2663 9.1589C44.2543 8.39062 44.2641 7.62212 44.2641 6.80736C41.8489 6.80736 39.4988 6.80736 37.0457 6.80736C37.0457 7.10942 37.0457 7.38188 37.0457 7.65434C37.0457 12.2472 37.0463 16.84 37.045 21.4326C37.0446 22.8129 36.7855 23.0693 35.4059 23.0702C34.2344 23.0709 33.063 23.0711 31.8915 23.0702C30.534 23.0693 30.2677 22.7982 30.2675 21.4107C30.2669 16.8413 30.2673 12.2719 30.2673 7.70256C30.2673 7.42396 30.2673 7.14558 30.2673 6.81372C29.4082 6.81372 28.6051 6.81372 27.7173 6.81372C27.7173 7.10679 27.7173 7.38056 27.7173 7.65456C27.7173 14.2625 27.7182 20.8706 27.7166 27.4785C27.7162 29.2426 26.897 30.0707 25.1502 30.0718C20.7222 30.074 16.2939 30.0744 11.8659 30.0716C10.1746 30.0705 9.30647 29.2081 9.30581 27.5227C9.30296 20.9148 9.30449 14.3067 9.30449 7.69884C9.30449 7.4198 9.30449 7.14098 9.30449 6.81131C8.45566 6.81131 7.65264 6.81131 6.80425 6.81131C6.80425 16.1774 6.80425 25.5136 6.80425 34.95C7.12182 34.95 7.41966 34.95 7.71729 34.95C13.1294 34.95 18.5417 34.9496 23.9538 34.9504C25.0312 34.9506 25.5469 35.2897 25.5486 35.9929C25.5504 36.6972 25.0194 37.058 23.9601 37.0582C18.4308 37.0598 12.9014 37.0617 7.37232 37.0576C5.45966 37.056 4.65072 36.231 4.65072 34.3056C4.65028 25.331 4.65028 16.3562 4.65072 7.38166C4.65094 5.47049 5.47325 4.65157 7.39183 4.65157C14.8189 4.65113 22.246 4.65091 29.6731 4.65157C31.5577 4.65179 32.3748 5.46106 32.3757 7.33519C32.3779 11.5764 32.3763 15.8177 32.3763 20.0591C32.3763 20.3342 32.3763 20.6095 32.3763 20.9227C33.2403 20.9227 34.0267 20.9227 34.8983 20.9227C34.9108 20.652 34.9336 20.3835 34.9338 20.1148C34.936 15.8735 34.9338 11.6323 34.9362 7.39087C34.9373 5.46501 35.7495 4.65179 37.6635 4.65157C46.6368 4.65113 55.6104 4.65113 64.5837 4.65157C66.5049 4.65157 67.3298 5.47005 67.3303 7.37662C67.3311 11.6178 67.3305 15.8591 67.3305 20.1005C67.3305 20.3552 67.3305 20.6099 67.3305 20.9127C68.1795 20.9127 68.9839 20.9127 69.8305 20.9127C69.8305 14.6813 69.8305 8.45747 69.8305 2.14133C69.6004 2.13125 69.3547 2.1113 69.109 2.11108C66.6723 2.10867 64.2356 2.10407 61.7992 2.11371C61.2057 2.11612 60.6637 2.06352 60.4138 1.41272C60.1591 0.749652 60.5664 0.365839 61.0148 0.000657646C64.1081 5.68537e-08 67.201 0 70.2938 0ZM11.4521 27.9155C16.2087 27.9155 20.8784 27.9155 25.5769 27.9155C25.5769 23.9676 25.5769 20.067 25.5769 16.1267C20.8567 16.1267 16.1686 16.1267 11.4521 16.1267C11.4521 20.0749 11.4521 23.972 11.4521 27.9155ZM25.5673 13.9299C25.5673 11.5414 25.5673 9.18937 25.5673 6.7598C25.1439 6.7598 24.7524 6.7598 24.361 6.7598C23.9472 6.7598 23.5336 6.7598 23.0644 6.7598C23.0644 7.59581 23.0703 8.34108 23.0631 9.08613C23.0493 10.5219 22.1798 11.3989 20.7404 11.4114C19.3349 11.4234 17.9291 11.4166 16.5236 11.4138C14.806 11.4101 13.9762 10.5885 13.9662 8.88294C13.962 8.19181 13.9655 7.50046 13.9655 6.79904C13.0645 6.79904 12.2792 6.79904 11.4591 6.79904C11.4591 9.19003 11.4591 11.5416 11.4591 13.9297C16.1782 13.9299 20.8519 13.9299 25.5673 13.9299ZM58.1873 6.80451C54.2193 6.80451 50.3258 6.80451 46.4249 6.80451C46.4249 7.65346 46.4249 8.4566 46.4249 9.25995C50.3708 9.25995 54.2642 9.25995 58.1873 9.25995C58.1873 8.4281 58.1873 7.64141 58.1873 6.80451ZM20.9249 6.81745C19.2783 6.81745 17.7032 6.81745 16.1177 6.81745C16.1177 7.66179 16.1177 8.44761 16.1177 9.26127C17.7391 9.26127 19.3167 9.26127 20.9249 9.26127C20.9249 8.43007 20.9249 7.64272 20.9249 6.81745Z" fill="#4A8780"/>
<path d="M52.3012 25.4141C49.7014 25.4141 47.1019 25.417 44.5021 25.4133C42.7668 25.4109 41.9155 24.5573 41.9135 22.8228C41.9109 20.6914 41.9078 18.5597 41.9146 16.4283C41.9197 14.8744 42.7977 13.9733 44.3472 13.9704C49.6403 13.9608 54.9331 13.9614 60.2262 13.97C61.7873 13.9726 62.6673 14.8597 62.6741 16.4142C62.6835 18.5926 62.6829 20.7709 62.6743 22.9493C62.668 24.5314 61.777 25.4076 60.1706 25.412C57.5473 25.4194 54.9242 25.4141 52.3012 25.4141ZM44.0737 16.1174C44.0737 18.5352 44.0737 20.8843 44.0737 23.2485C49.5859 23.2485 55.0462 23.2485 60.5131 23.2485C60.5131 20.8435 60.5131 18.4959 60.5131 16.1161C59.6737 16.1161 58.8891 16.1161 58.0157 16.1161C58.0157 16.8728 58.024 17.592 58.014 18.3111C57.9923 19.8433 57.1432 20.7286 55.6314 20.7422C53.4084 20.762 51.1849 20.7611 48.9619 20.7424C47.4558 20.73 46.589 19.8321 46.5715 18.3168C46.5632 17.5972 46.57 16.8776 46.57 16.1177C45.7053 16.1174 44.9203 16.1174 44.0737 16.1174ZM55.9069 18.6075C55.9069 17.9074 55.8817 17.2805 55.9152 16.6571C55.9406 16.1832 55.7495 16.0637 55.3044 16.0679C53.2732 16.0865 51.2417 16.0747 49.2105 16.0791C49.0546 16.0795 48.899 16.1203 48.7401 16.1429C48.7401 16.9813 48.7401 17.7796 48.7401 18.6077C51.1286 18.6075 53.456 18.6075 55.9069 18.6075Z" fill="#4A8780"/>
<path d="M60.5741 49.9502C60.5682 48.8203 60.8527 48.3718 61.5806 48.3542C62.3366 48.336 62.6783 48.8334 62.6753 49.9581C62.6746 50.2143 62.6913 50.4785 62.6371 50.7251C62.5109 51.2998 62.1352 51.6356 61.5385 51.5885C60.9515 51.5422 60.614 51.183 60.5761 50.5806C60.5631 50.3713 60.5741 50.1604 60.5741 49.9502Z" fill="#4A8780"/>
<path d="M60.569 56.9737C60.5694 56.8102 60.5637 56.6464 60.5703 56.4832C60.5993 55.7662 60.9953 55.3329 61.6146 55.3357C62.2003 55.3383 62.6198 55.7583 62.6687 56.4211C62.6926 56.7464 62.6875 57.0754 62.6729 57.4018C62.64 58.1356 62.1854 58.6209 61.5723 58.5948C60.9717 58.5694 60.5927 58.117 60.5692 57.3941C60.5646 57.2543 60.5686 57.114 60.569 56.9737Z" fill="#4A8780"/>
</svg>
