<svg width="16" height="16" viewBox="0 0 16 16" fill="none" xmlns="http://www.w3.org/2000/svg">
<path d="M3.91125 7.98935C3.91125 9.45018 4.69065 10.8 5.95576 11.5303C7.22078 12.2607 8.77954 12.2607 10.0447 11.5303C11.3098 10.7999 12.0892 9.45008 12.0892 7.98935C11.8651 2.55285 4.13551 2.55126 3.91138 7.98935H3.91125ZM5.16992 7.98935C5.16992 6.97818 5.70935 6.04392 6.5851 5.53834C7.46072 5.03275 8.53957 5.03275 9.41519 5.53834C10.2909 6.04392 10.8304 6.97818 10.8304 7.98935C10.6757 11.7528 5.33354 11.7547 5.17005 7.98935H5.16992Z" fill="white"/>
<path d="M12.2506 0H3.74937C2.75521 0.000992064 1.80206 0.39619 1.09921 1.09921C0.39619 1.8021 0.000984127 2.75521 0 3.74937V12.2506C0.000992064 13.2448 0.39619 14.1979 1.09921 14.9008C1.8021 15.6038 2.75521 15.999 3.74937 16H12.2506C13.2448 15.999 14.1979 15.6038 14.9008 14.9008C15.6038 14.1979 15.999 13.2448 16 12.2506V3.74937C15.999 2.75521 15.6038 1.80206 14.9008 1.09921C14.1979 0.39619 13.2448 0.000984127 12.2506 0ZM14.7556 12.2505C14.7561 12.915 14.4923 13.5524 14.0224 14.0223C13.5526 14.4921 12.9152 14.7559 12.2506 14.7554H3.74937C3.08479 14.7559 2.4474 14.4922 1.97756 14.0223C1.50771 13.5524 1.24394 12.915 1.24441 12.2505V3.74921C1.24392 3.08464 1.50768 2.44724 1.97756 1.9774C2.44743 1.50756 3.08483 1.24378 3.74937 1.24425H12.2506C12.9152 1.24376 13.5526 1.50752 14.0224 1.9774C14.4923 2.44727 14.7561 3.08467 14.7556 3.74921V12.2505Z" fill="white"/>
<path d="M12.4446 2.84473C12.256 2.84473 12.0752 2.91963 11.9417 3.05294C11.8084 3.18637 11.7335 3.36717 11.7335 3.55579C11.7335 3.74442 11.8084 3.92522 11.9417 4.05865C12.0752 4.19196 12.256 4.26686 12.4446 4.26686C12.6332 4.26686 12.814 4.19196 12.9474 4.05865C13.0808 3.92522 13.1557 3.74442 13.1557 3.55579C13.1557 3.36717 13.0808 3.18636 12.9474 3.05294C12.814 2.91963 12.6332 2.84473 12.4446 2.84473Z" fill="white"/>
</svg>
