<svg width="72" height="72" viewBox="0 0 72 72" fill="none" xmlns="http://www.w3.org/2000/svg">
<path d="M72 8.37854C72 6.15635 71.1175 4.02494 69.5459 2.4541C67.975 0.882573 65.8436 0 63.6215 0H8.37854C6.15635 0 4.02494 0.882523 2.4541 2.4541C0.882575 4.02497 0 6.15635 0 8.37854V63.6215C0 65.8436 0.882525 67.9751 2.4541 69.5459C4.02497 71.1174 6.15635 72 8.37854 72H63.6215C65.8436 72 67.9751 71.1175 69.5459 69.5459C71.1174 67.975 72 65.8436 72 63.6215V8.37854ZM63.6216 68.268L28.9248 68.2686V39.7245C28.9248 39.231 28.7287 38.7576 28.3793 38.4082C28.03 38.0588 27.5566 37.8627 27.0624 37.8627H13.7219C12.6933 37.8627 11.8602 38.6965 11.8602 39.7245C11.8602 40.7531 12.6933 41.5869 13.7219 41.5869H25.2006V68.2774H8.37836C7.14386 68.2774 5.96 67.7871 5.08722 66.9137C4.21379 66.0409 3.7235 64.8571 3.7235 63.6226V19.2437H22.4077C23.4363 19.2437 24.2701 18.4105 24.2701 17.3819C24.2701 16.3533 23.4363 15.5202 22.4077 15.5202H3.7235V8.37947C3.7235 7.14497 4.21379 5.96112 5.08722 5.08834C5.96 4.2149 7.14383 3.72462 8.37836 3.72462H63.6213C64.8558 3.72462 66.0396 4.2149 66.9124 5.08834C67.7858 5.96112 68.2761 7.14494 68.2761 8.37947V27.6222H49.7133V11.7953C49.7133 10.7673 48.8795 9.93352 47.8515 9.93352C46.8229 9.93352 45.9898 10.7673 45.9898 11.7953V27.6222H32.6487C31.6207 27.6222 30.7869 28.4554 30.7869 29.484C30.7869 30.512 31.6207 31.3458 32.6487 31.3458H68.2765V48.7266H46.3056C45.277 48.7266 44.4439 49.5604 44.4439 50.589V61.2579C44.4439 62.2859 45.277 63.1197 46.3056 63.1197C47.3336 63.1197 48.1674 62.2859 48.1674 61.2579V52.4508H68.2763V63.6222C68.2763 64.8567 67.786 66.0406 66.9126 66.9134C66.0398 67.7868 64.856 68.2771 63.6214 68.2771L63.6216 68.268Z" fill="#4A8780"/>
</svg>
