<svg width="16" height="16" viewBox="0 0 16 16" fill="none" xmlns="http://www.w3.org/2000/svg">
<path d="M5.6697 5.31567C6.72777 5.31567 7.76728 5.31567 8.83241 5.31567C8.83241 5.79072 8.83241 6.26106 8.83241 6.75153C8.87607 6.72879 8.89777 6.72513 8.90535 6.71284C9.611 5.57947 10.6665 5.08664 11.9687 5.05658C12.6979 5.03984 13.4103 5.13135 14.0773 5.44979C14.9414 5.86235 15.4258 6.57976 15.6941 7.46894C15.91 8.18426 15.9845 8.92127 15.9895 9.66169C16.0034 11.714 15.9981 13.7664 16 15.8187C16 15.8501 15.9958 15.8815 15.9924 15.9262C14.8938 15.9262 13.8035 15.9262 12.6812 15.9262C12.6812 15.8569 12.6812 15.7824 12.6812 15.7076C12.6804 13.9669 12.6859 12.2265 12.6744 10.4858C12.6717 10.0918 12.6406 9.69228 12.5693 9.30534C12.3679 8.21302 11.6563 7.8449 10.6414 7.9636C9.71479 8.0721 9.20419 8.61277 9.05961 9.6128C9.00679 9.97778 8.98326 10.3496 8.98143 10.7185C8.97333 12.381 8.97777 14.0438 8.97777 15.7066C8.97777 15.784 8.97777 15.8614 8.97777 15.9529C7.87055 15.9529 6.77561 15.9529 5.66943 15.9529C5.6697 12.4095 5.6697 8.87264 5.6697 5.31567Z" fill="white"/>
<path d="M0.272949 15.9553C0.272949 12.4041 0.272949 8.86747 0.272949 5.3186C1.37207 5.3186 2.4623 5.3186 3.56796 5.3186C3.56796 8.86303 3.56796 12.403 3.56796 15.9553C2.47354 15.9553 1.38357 15.9553 0.272949 15.9553Z" fill="white"/>
<path d="M3.83803 1.91046C3.84404 2.96854 2.98389 3.84569 1.93444 3.8517C0.879244 3.85772 0.000261506 2.97926 5.96388e-08 1.91752C-0.000261387 0.873046 0.859112 0.00948876 1.90777 7.66963e-05C2.96506 -0.00933537 3.83202 0.848731 3.83803 1.91046Z" fill="white"/>
</svg>
