<svg width="72" height="72" viewBox="0 0 72 72" fill="none" xmlns="http://www.w3.org/2000/svg">
<path d="M69.5991 53.2389C66.8453 53.2389 64.1863 53.2389 61.4715 53.2389C61.4715 57.567 61.4715 61.8787 61.4715 66.231C64.1547 66.231 66.8127 66.231 69.6002 66.231C69.6002 65.7759 69.6013 65.322 69.6 64.8678C69.5983 64.316 69.7607 63.8615 70.402 63.8598C71.0305 63.8583 71.2212 64.2817 71.2193 64.8498C71.2131 66.6279 71.2234 68.4061 71.2138 70.1844C71.2101 70.8926 70.9429 71.1498 70.2439 71.1748C70.057 71.1815 69.8697 71.1765 69.6825 71.1765C53.2836 71.1765 36.8845 71.1767 20.4855 71.1757C20.205 71.1757 19.8683 71.2601 19.6579 71.1358C19.3785 70.9708 19.0275 70.6419 19.0226 70.3777C19.018 70.1176 19.3611 69.7689 19.638 69.6118C19.8724 69.4788 20.2307 69.5548 20.5341 69.5546C36.5588 69.5531 52.5835 69.5533 68.6082 69.5533C68.9063 69.5533 69.2042 69.5533 69.5501 69.5533C69.5501 68.9769 69.5501 68.4782 69.5501 67.952C47.2436 67.952 24.979 67.952 2.66646 67.952C2.66646 68.4707 2.66646 68.9698 2.66646 69.5533C2.9824 69.5533 3.25633 69.5533 3.53008 69.5533C7.10927 69.5533 10.6886 69.5525 14.2678 69.5548C14.5245 69.555 14.8436 69.4861 15.0229 69.6099C15.2925 69.7959 15.6377 70.1297 15.6289 70.3897C15.6199 70.6537 15.2413 70.9292 14.9816 71.1485C14.8838 71.2312 14.6651 71.1753 14.5015 71.1755C10.4076 71.1763 6.31371 71.1774 2.21983 71.1753C1.19365 71.1748 1.0009 70.9787 1.0009 69.9399C0.999772 61.517 0.99996 53.094 1.0009 44.6711C1.00108 43.6181 1.2169 43.4004 2.27196 43.3976C3.83309 43.3934 5.39402 43.3965 7.13946 43.3965C5.60871 41.6894 5.92634 39.7278 5.90421 37.8313C5.89671 37.1941 6.21471 36.881 6.85015 36.8868C6.94371 36.8878 7.03971 36.872 7.13046 36.8879C8.92934 37.2014 10.3543 36.6187 11.4028 35.1189C11.4688 35.0246 11.5648 34.9507 11.649 34.8695C12.1553 34.3813 12.6433 34.3048 12.988 34.6946C13.4361 35.2018 13.2195 35.6456 12.7885 36.0286C12.5335 36.2553 12.2526 36.4529 11.9833 36.6637C12.0343 36.7378 12.0851 36.8118 12.1361 36.8859C12.9679 36.8859 13.7996 36.8789 14.6312 36.8879C15.4277 36.8964 15.6803 37.139 15.6915 37.9398C15.703 38.7583 15.7911 39.5971 15.6465 40.3906C15.4633 41.3968 15.0793 42.3665 14.7821 43.3514C17.8073 43.3514 20.9927 43.3514 24.0767 43.3514C23.9785 42.2913 23.8826 41.2571 23.7825 40.1765C23.1874 40.061 22.2176 40.3475 22.2533 39.2827C22.2851 38.3317 23.1793 38.5779 23.7561 38.4661C23.7988 38.4043 23.845 38.3683 23.8481 38.3285C23.9653 36.8857 23.9648 36.8855 25.4411 36.8855C27.7337 36.8855 30.0263 36.8848 32.3188 36.8859C33.4703 36.8864 33.5997 37.01 33.6679 38.1513C33.6733 38.2413 33.6949 38.3302 33.7148 38.4566C34.3367 38.6002 35.316 38.3049 35.2521 39.3973C35.1981 40.3201 34.368 40.0871 33.7603 40.1645C33.6521 41.2224 33.5447 42.2737 33.4339 43.3567C35.0846 43.3567 36.8273 43.3567 38.5536 43.3567C38.5536 42.3614 38.5437 41.3893 38.5566 40.4173C38.5675 39.5949 38.839 39.3196 39.6596 39.3181C43.2857 39.3116 46.9118 39.3121 50.5377 39.3179C51.237 39.3191 51.6364 39.6318 51.6013 40.1525C51.5565 40.8179 51.1011 40.9794 50.5198 40.9711C49.8235 40.9612 49.1269 40.9689 48.3469 40.9689C48.3469 41.4249 48.3469 41.8155 48.3469 42.2058C48.3469 42.5745 48.3469 42.9431 48.3469 43.3543C54.5578 43.3543 60.7947 43.3543 67.0858 43.3543C67.1023 43.1853 67.1346 43.0072 67.1348 42.8289C67.1383 40.6764 67.129 38.5237 67.1425 36.3714C67.146 35.7918 67.0174 35.3281 66.3626 35.2514C65.8384 35.1899 65.52 35.6268 65.5054 36.3693C65.4966 36.8137 65.5127 37.259 65.4887 37.7023C65.4621 38.1989 65.1816 38.4918 64.6804 38.4828C64.1833 38.4738 63.9043 38.1804 63.8935 37.6805C63.8801 37.0726 63.8665 36.4625 63.9004 35.8561C63.9658 34.6891 64.8934 33.7533 66.0557 33.6404C67.2782 33.5219 68.3713 34.2425 68.6689 35.3966C68.7552 35.7314 68.7814 36.0894 68.7831 36.437C68.7934 38.4725 68.7882 40.508 68.7882 42.5437C68.7882 42.7963 68.7882 43.0488 68.7882 43.3965C69.2813 43.3965 69.7176 43.386 70.1532 43.3987C70.9442 43.422 71.2137 43.6818 71.2142 44.4575C71.2187 50.0261 71.2148 55.5945 71.2193 61.163C71.2197 61.7272 71.0468 62.1616 70.4188 62.1718C69.7825 62.1819 69.5998 61.7375 69.5998 61.1801C69.5995 58.817 69.5989 56.454 69.5985 54.0907C69.5991 53.8181 69.5991 53.5443 69.5991 53.2389ZM49.9635 45.102C40.6954 45.102 31.4732 45.102 22.2542 45.102C22.2542 52.1685 22.2542 59.1793 22.2542 66.2304C23.3269 66.2304 24.3645 66.2304 25.4809 66.2304C25.4809 65.9214 25.4809 65.6469 25.4809 65.3724C25.4809 61.1844 25.4792 56.9966 25.4824 52.8086C25.4831 51.845 25.707 51.588 26.5967 51.5872C32.9361 51.5812 39.2757 51.5814 45.615 51.587C46.4839 51.5878 46.7299 51.848 46.734 52.7338C46.7419 54.4183 46.7366 56.1028 46.7357 57.7873C46.7357 57.9041 46.7387 58.0226 46.7215 58.1375C46.65 58.6143 46.3845 58.9325 45.8907 58.9188C45.4045 58.9053 45.1272 58.5963 45.0992 58.1047C45.0807 57.7781 45.0926 57.4498 45.0926 57.1222C45.0923 55.8418 45.0925 54.5613 45.0925 53.2543C39.0718 53.2543 33.1236 53.2543 27.1624 53.2543C27.1624 56.5196 27.1624 59.7371 27.1624 62.9707C33.1493 62.9707 39.0987 62.9707 45.1002 62.9707C45.1002 62.3911 45.0085 61.8333 45.1352 61.3305C45.2091 61.0374 45.6126 60.674 45.9047 60.6373C46.1412 60.6075 46.4929 60.9774 46.6793 61.2485C46.8028 61.4283 46.7344 61.7467 46.7351 62.0032C46.7385 63.4001 46.7368 64.797 46.7368 66.2304C47.8532 66.2304 48.8908 66.2304 49.9635 66.2304C49.9635 59.1795 49.9635 52.1686 49.9635 45.102ZM20.5483 66.2291C20.5483 62.9681 20.5483 59.7706 20.5483 56.5387C14.5654 56.5387 8.62034 56.5387 2.65671 56.5387C2.65671 59.7946 2.65671 62.991 2.65671 66.2291C8.62352 66.2291 14.5525 66.2291 20.5483 66.2291ZM20.527 54.8173C20.527 51.5486 20.527 48.3189 20.527 45.0909C14.5399 45.0909 8.6119 45.0909 2.66421 45.0909C2.66421 48.3526 2.66421 51.5696 2.66421 54.8173C8.63834 54.8173 14.5665 54.8173 20.527 54.8173ZM69.5425 51.5521C69.5425 49.35 69.5425 47.2171 69.5425 45.0858C63.5571 45.0858 57.6287 45.0858 51.6921 45.0858C51.6921 47.2578 51.6921 49.3897 51.6921 51.5521C57.6595 51.5521 63.5665 51.5521 69.5425 51.5521ZM59.7411 66.2709C59.7411 61.8538 59.7411 57.5482 59.7411 53.2496C57.0216 53.2496 54.3662 53.2496 51.6846 53.2496C51.6846 57.599 51.6846 61.9053 51.6846 66.2709C52.1065 66.2709 52.476 66.2709 52.8456 66.2709C55.1325 66.2709 57.4195 66.2709 59.7411 66.2709ZM32.0239 38.5623C29.8133 38.5623 27.6806 38.5623 25.5117 38.5623C25.5117 39.7297 25.4597 40.8478 25.5283 41.9583C25.5814 42.8158 26.2142 43.3608 27.0666 43.383C28.186 43.412 29.307 43.4124 30.4264 43.3848C31.332 43.3625 31.9772 42.7507 32.0136 41.846C32.0569 40.7756 32.0239 39.7019 32.0239 38.5623ZM7.57052 38.5561C7.57052 39.2716 7.50002 39.95 7.58459 40.6085C7.7884 42.1963 9.06059 43.3269 10.6161 43.3903C12.2725 43.4576 13.65 42.4376 13.9609 40.8123C14.0985 40.0925 14.0537 39.3378 14.0938 38.5563C11.8648 38.5561 9.72977 38.5561 7.57052 38.5561ZM45.0718 64.7218C39.0585 64.7218 33.1116 64.7218 27.1688 64.7218C27.1688 65.2582 27.1688 65.738 27.1688 66.2163C33.16 66.2163 39.1073 66.2163 45.0718 66.2163C45.0718 65.6998 45.0718 65.2376 45.0718 64.7218ZM40.1869 41.0011C40.1869 41.4916 40.1794 41.9302 40.1886 42.3684C40.2041 43.1156 40.4607 43.3854 41.197 43.3931C42.3405 43.4049 43.4845 43.3931 44.628 43.3976C46.6161 43.4053 46.836 43.6636 46.7141 41.1504C46.7121 41.1099 46.6718 41.0711 46.632 41.0011C44.5309 41.0011 42.4131 41.0011 40.1869 41.0011Z" fill="#4A8780"/>
<path d="M36.0934 29.5241C31.9082 29.5241 27.7229 29.5254 23.5377 29.5234C22.4183 29.5228 22.2216 29.325 22.2196 28.2264C22.2182 27.4314 22.2451 26.6351 22.2104 25.8416C22.1867 25.2982 22.3876 24.9199 22.7888 24.5677C24.8798 22.7325 26.946 20.8689 29.0406 19.0378C29.4267 18.7003 29.5834 18.3562 29.5815 17.8384C29.5624 12.6705 29.5694 7.50242 29.5705 2.33436C29.5707 1.11017 29.7317 0.947044 30.9306 0.946669C34.4378 0.945919 37.945 0.944794 41.4522 0.947606C42.427 0.948356 42.6452 1.16304 42.6458 2.14986C42.6495 7.36461 42.6552 12.5795 42.6368 17.7943C42.6349 18.332 42.7898 18.6995 43.1972 19.0549C45.2241 20.8213 47.2138 22.6305 49.2437 24.3934C49.7816 24.8606 50.0696 25.349 50.0113 26.0825C49.9523 26.8262 50.001 27.5782 49.9975 28.3264C49.993 29.2832 49.7614 29.5213 48.789 29.5224C44.5573 29.5265 40.3255 29.5241 36.0934 29.5241ZM46.821 24.6285C46.8443 24.5692 46.8677 24.5098 46.891 24.4505C46.7621 24.3534 46.626 24.2645 46.5058 24.1579C44.8797 22.7139 43.2687 21.2522 41.6224 19.8315C41.1694 19.4407 41.0027 19.0256 41.0048 18.4385C41.0224 13.4334 41.0149 8.42811 41.0149 3.42279C41.0149 3.16911 41.0149 2.91542 41.0149 2.61786C37.7235 2.61786 34.4869 2.61786 31.2029 2.61786C31.2029 2.92104 31.2029 3.17623 31.2029 3.43123C31.2029 7.75817 31.0823 12.09 31.2548 16.4102C31.3384 18.5049 30.8177 19.9935 29.0835 21.2124C27.7418 22.1555 26.5979 23.3797 25.2467 24.5854C25.6339 24.6052 25.858 24.6262 26.082 24.6268C27.4384 24.6302 28.7948 24.6208 30.1512 24.6328C30.856 24.6392 31.2417 24.9555 31.1903 25.4809C31.1295 26.1043 30.7015 26.2575 30.145 26.2545C28.4145 26.2451 26.6839 26.2513 24.9533 26.2513C24.6107 26.2513 24.2684 26.2513 23.9228 26.2513C23.9228 26.8464 23.9228 27.3467 23.9228 27.8565C32.0783 27.8565 40.1807 27.8565 48.2981 27.8565C48.2981 27.3116 48.2981 26.8115 48.2981 26.2513C47.997 26.2513 47.7445 26.2513 47.4921 26.2513C43.3294 26.2513 39.1667 26.2517 35.004 26.2504C34.7706 26.2504 34.4682 26.3254 34.3187 26.2097C34.057 26.0068 33.7446 25.6916 33.7272 25.4066C33.7127 25.1724 34.0555 24.851 34.3148 24.6868C34.5034 24.5674 34.8145 24.6302 35.0708 24.63C38.7424 24.6275 42.4138 24.6283 46.0855 24.6283C46.3307 24.6285 46.576 24.6285 46.821 24.6285Z" fill="#4A8780"/>
<path d="M13.2494 0.946258C16.8979 0.946258 20.5465 0.945508 24.195 0.94682C25.2983 0.947195 25.4796 1.11913 25.48 2.18751C25.482 7.89501 25.482 13.6025 25.4798 19.31C25.4794 20.3476 25.2912 20.5374 24.2459 20.5378C16.902 20.5404 9.55823 20.5406 2.21423 20.5376C1.18842 20.5372 1.0011 20.3375 1.00092 19.2899C0.99979 13.5824 0.999603 7.87494 1.00092 2.16744C1.0011 1.14051 1.19592 0.94757 2.23354 0.947008C5.90554 0.945133 9.57754 0.946258 13.2494 0.946258ZM23.8388 18.8771C23.8388 13.4144 23.8388 8.04219 23.8388 2.62007C20.5746 2.62007 17.3419 2.62007 14.1045 2.62007C14.1045 8.06301 14.1045 13.4548 14.1045 18.8771C17.3586 18.8771 20.572 18.8771 23.8388 18.8771ZM12.3852 2.63151C9.09229 2.63151 5.8806 2.63151 2.6736 2.63151C2.6736 8.08682 2.6736 13.4797 2.6736 18.8587C5.94285 18.8587 9.1566 18.8587 12.3852 18.8587C12.3852 13.4248 12.3852 8.04838 12.3852 2.63151Z" fill="#4A8780"/>
<path d="M58.9585 0.946288C62.6305 0.946288 66.3023 0.945163 69.9743 0.94685C71.0207 0.947413 71.2165 1.13754 71.2168 2.15847C71.2183 7.88941 71.2185 13.6202 71.2167 19.3511C71.2163 20.3268 71.0083 20.5368 70.0114 20.5372C62.6442 20.5404 55.2769 20.5404 47.9097 20.5367C46.9502 20.5361 46.7397 20.3274 46.7391 19.389C46.7357 13.6113 46.7354 7.83372 46.7395 2.05591C46.74 1.16435 46.9656 0.948538 47.8727 0.9476C51.5678 0.944413 55.263 0.946288 58.9585 0.946288ZM48.3884 2.61804C48.3884 8.0561 48.3884 13.4452 48.3884 18.8593C51.6593 18.8593 54.8894 18.8593 58.1067 18.8593C58.1067 13.4124 58.1067 8.02235 58.1067 2.61804C54.8442 2.61804 51.6293 2.61804 48.3884 2.61804ZM59.8461 2.61447C59.8461 8.05329 59.8461 13.4469 59.8461 18.8713C63.0988 18.8713 66.3103 18.8713 69.5535 18.8713C69.5535 13.4355 69.5535 8.04485 69.5535 2.61447C66.2935 2.61447 63.0793 2.61447 59.8461 2.61447Z" fill="#4A8780"/>
<path d="M63.8717 59.7309C63.8717 60.0345 63.9749 60.3954 63.8459 60.6272C63.6801 60.9249 63.3274 61.3059 63.0565 61.305C62.7857 61.304 62.347 60.914 62.2829 60.6272C62.1586 60.0709 62.1588 59.4487 62.2793 58.8909C62.3436 58.5933 62.7316 58.2245 63.0357 58.1531C63.5003 58.0438 63.8072 58.4133 63.8691 58.8905C63.9049 59.1662 63.8757 59.4504 63.8757 59.7307C63.8744 59.7309 63.873 59.7309 63.8717 59.7309Z" fill="#4A8780"/>
<path d="M36.1043 54.8563C37.6461 54.8563 39.1881 54.8664 40.7299 54.851C41.3187 54.8452 41.803 55.0069 41.8078 55.6586C41.8127 56.3139 41.3188 56.4817 40.7378 56.4808C37.654 56.4761 34.5702 56.4761 31.4865 56.4808C30.9085 56.4817 30.4478 56.3257 30.3994 55.6657C30.3621 55.1561 30.7729 54.8606 31.4788 54.858C33.0205 54.8525 34.5625 54.8565 36.1043 54.8563Z" fill="#4A8780"/>
<path d="M42.6721 45.8788C44.0222 45.8917 45.1052 46.9978 45.088 48.3455C45.0709 49.6813 43.9409 50.7868 42.6094 50.7703C41.2808 50.7538 40.1669 49.6089 40.1911 48.2846C40.2158 46.9335 41.3168 45.8657 42.6721 45.8788ZM41.8006 48.459C41.9952 48.6268 42.2427 48.9949 42.5663 49.0828C43.0279 49.2082 43.3718 48.8945 43.4224 48.3949C43.4731 47.8967 43.2186 47.5777 42.7212 47.5277C42.2284 47.478 41.9318 47.7356 41.8006 48.459Z" fill="#4A8780"/>
<path d="M27.1274 48.3152C27.1326 46.9614 28.2209 45.8778 29.5744 45.8788C30.9271 45.8797 32.0264 46.9721 32.0254 48.3148C32.0245 49.6457 30.9079 50.7641 29.5733 50.7709C28.2486 50.7774 27.1223 49.6466 27.1274 48.3152ZM29.5319 47.507C29.0751 47.5768 28.7654 47.817 28.7871 48.3313C28.8081 48.8298 29.1014 49.1193 29.5951 49.1062C30.0867 49.0931 30.3698 48.794 30.3623 48.2927C30.3544 47.7806 30.0359 47.5524 29.5319 47.507Z" fill="#4A8780"/>
<path d="M38.5399 48.2932C38.5504 49.6504 37.462 50.7594 36.1101 50.7688C34.801 50.778 33.6949 49.6888 33.6739 48.3699C33.6518 46.989 34.7061 45.8929 36.07 45.879C37.4507 45.8646 38.5292 46.9189 38.5399 48.2932ZM36.2633 47.3989C36.1562 47.3991 36.0492 47.3994 35.9421 47.3996C35.7263 47.6998 35.3796 47.9788 35.3262 48.3056C35.2525 48.756 35.5838 49.0946 36.0766 49.1089C36.6046 49.1242 36.9584 48.7888 36.8879 48.3C36.841 47.9762 36.4823 47.6976 36.2633 47.3989Z" fill="#4A8780"/>
<path d="M11.5834 62.1869C11.0477 62.186 10.5115 62.1991 9.97634 62.1821C9.48096 62.1663 9.18247 61.8798 9.17328 61.3944C9.1639 60.9035 9.4654 60.5994 9.95534 60.5891C11.0494 60.5658 12.1446 60.5668 13.2388 60.585C13.7265 60.593 14.0451 60.8859 14.0434 61.3732C14.0417 61.8913 13.7196 62.1779 13.1908 62.186C12.6552 62.1944 12.1193 62.1881 11.5834 62.1869Z" fill="#4A8780"/>
<path d="M11.5832 49.1261C12.1199 49.1261 12.6572 49.11 13.1929 49.1308C13.7076 49.1509 14.0438 49.4299 14.044 49.9566C14.0442 50.4508 13.7134 50.7457 13.2407 50.7583C12.1452 50.7875 11.0474 50.79 9.95217 50.7546C9.48155 50.7394 9.16261 50.4366 9.17198 49.9354C9.18136 49.4398 9.49298 49.1623 9.97373 49.1357C10.5087 49.1061 11.0466 49.1289 11.5832 49.1289C11.5832 49.128 11.5832 49.1271 11.5832 49.1261Z" fill="#4A8780"/>
<path d="M60.619 49.1199C60.3388 49.119 60.0574 49.136 59.779 49.115C59.2877 49.0783 58.9994 48.8019 58.9956 48.306C58.992 47.8387 59.2737 47.5509 59.7248 47.5203C60.3055 47.4808 60.8927 47.4783 61.4732 47.5172C61.9572 47.5496 62.2493 47.8515 62.2198 48.3553C62.1908 48.8531 61.8784 49.0996 61.3894 49.119C61.1329 49.1293 60.8757 49.121 60.619 49.1199Z" fill="#4A8780"/>
<path d="M58.981 59.7377C58.9812 59.9713 58.9868 60.2051 58.9801 60.4387C58.9647 60.9791 58.7346 61.3503 58.1494 61.3522C57.5969 61.3539 57.3634 60.9907 57.3394 60.4895C57.3158 60 57.3213 59.508 57.3383 59.0179C57.3561 58.5109 57.6042 58.1402 58.1348 58.131C58.7003 58.1212 58.9626 58.4897 58.9793 59.0368C58.9866 59.27 58.9808 59.5038 58.981 59.7377Z" fill="#4A8780"/>
<path d="M16.4847 10.7897C16.4839 11.0694 16.5072 11.3514 16.4787 11.6282C16.4312 12.0881 16.1556 12.3493 15.6906 12.3487C15.2271 12.3482 14.9312 12.0902 14.9044 11.6293C14.8707 11.0484 14.812 10.4467 14.9288 9.88856C14.9908 9.59212 15.3658 9.21712 15.6627 9.14756C16.1213 9.04012 16.441 9.38474 16.4809 9.88106C16.5053 10.1822 16.4854 10.4867 16.4847 10.7897Z" fill="#4A8780"/>
<path d="M9.99359 10.6815C9.99359 10.4017 9.89534 10.0644 10.017 9.85572C10.1908 9.55816 10.5071 9.19647 10.7983 9.1616C11.0284 9.13404 11.488 9.52516 11.5369 9.78804C11.6501 10.3961 11.6087 11.0411 11.5675 11.667C11.5371 12.1295 11.2133 12.3688 10.7509 12.347C10.2868 12.3253 10.0275 12.0498 9.99434 11.5907C9.97259 11.289 9.99021 10.9847 9.99021 10.6815C9.99134 10.6815 9.99246 10.6815 9.99359 10.6815Z" fill="#4A8780"/>
<path d="M55.7363 10.74C55.7365 10.437 55.6345 10.0781 55.7622 9.84505C55.9251 9.5473 56.2572 9.19124 56.5472 9.16143C56.7788 9.13762 57.2303 9.53305 57.2785 9.79799C57.3895 10.407 57.3889 11.0632 57.2794 11.6726C57.2322 11.9349 56.8317 12.2546 56.539 12.3231C56.1023 12.4252 55.7929 12.1106 55.7423 11.6479C55.7095 11.3488 55.7361 11.043 55.7363 10.74Z" fill="#4A8780"/>
<path d="M62.2229 10.7379C62.2229 11.0411 62.2529 11.3478 62.2159 11.6463C62.1595 12.1018 61.8548 12.4248 61.4164 12.3226C61.1241 12.2546 60.7277 11.9379 60.6762 11.6741C60.562 11.0902 60.5526 10.4529 60.6679 9.87071C60.7255 9.58009 61.1196 9.20977 61.4183 9.14733C61.8773 9.05133 62.1889 9.40215 62.224 9.89846C62.2435 10.1769 62.2276 10.458 62.2276 10.7377C62.2257 10.7379 62.2244 10.7379 62.2229 10.7379Z" fill="#4A8780"/>
</svg>
