<svg width="16" height="16" viewBox="0 0 16 16" fill="none" xmlns="http://www.w3.org/2000/svg">
<path d="M6.23906 8.95208C6.10999 8.95208 6.00302 8.95208 5.89605 8.95208C5.40267 8.95192 4.90929 8.95563 4.41607 8.9503C4.12146 8.94708 4.02353 8.86108 4.02079 8.57954C4.01353 7.82156 4.01336 7.06342 4.02111 6.30544C4.02401 6.02471 4.12759 5.93823 4.41849 5.93678C4.95398 5.93404 5.48947 5.93597 6.02496 5.93597C6.08966 5.93597 6.1542 5.93597 6.23922 5.93597C6.23922 5.84756 6.23809 5.77722 6.23938 5.70687C6.25197 5.02166 6.22696 4.33305 6.2852 3.65171C6.43138 1.93601 7.74921 0.694498 9.47249 0.629477C10.1935 0.602211 10.9162 0.618345 11.6382 0.62012C11.8776 0.620765 11.9805 0.7237 11.9818 0.96313C11.9857 1.679 11.9859 2.39503 11.9818 3.1109C11.9804 3.35468 11.8805 3.45165 11.6199 3.4581C11.1329 3.47004 10.6454 3.47037 10.1582 3.47763C9.59237 3.48602 9.36939 3.69947 9.35923 4.26545C9.34971 4.79981 9.35713 5.3345 9.35713 5.88838C9.43248 5.89193 9.49573 5.89758 9.55897 5.89758C10.1787 5.89822 10.7984 5.89741 11.4181 5.89822C11.8221 5.8987 11.9104 5.98567 11.9107 6.38176C11.9113 7.09166 11.9118 7.80172 11.9104 8.51162C11.9097 8.84414 11.8274 8.9282 11.4943 8.92965C10.8565 8.93223 10.2187 8.93062 9.58107 8.93078C9.51557 8.93078 9.45023 8.93078 9.35794 8.93078C9.35794 9.01952 9.35794 9.09551 9.35794 9.1715C9.35794 11.0547 9.3581 12.9378 9.35794 14.821C9.35794 15.3278 9.29873 15.3859 8.78534 15.386C8.09351 15.3862 7.40152 15.3867 6.70969 15.3859C6.32748 15.3854 6.23938 15.2986 6.23938 14.9212C6.23874 13.0137 6.23906 11.1065 6.23906 9.19925C6.23906 9.12778 6.23906 9.0563 6.23906 8.95208Z" fill="white"/>
</svg>
