<svg width="16" height="17" viewBox="0 0 16 17" fill="none" xmlns="http://www.w3.org/2000/svg">
<g clip-path="url(#clip0_102_365)">
<path d="M6.23906 9.9074C6.10999 9.9074 6.00302 9.9074 5.89605 9.9074C5.40267 9.90724 4.90929 9.91095 4.41607 9.90563C4.12146 9.9024 4.02353 9.8164 4.02079 9.53486C4.01353 8.77689 4.01336 8.01875 4.02111 7.26077C4.02401 6.98003 4.12759 6.89356 4.41849 6.8921C4.95398 6.88936 5.48947 6.8913 6.02496 6.8913C6.08966 6.8913 6.1542 6.8913 6.23922 6.8913C6.23922 6.80288 6.23809 6.73254 6.23938 6.66219C6.25197 5.97698 6.22696 5.28838 6.2852 4.60703C6.43138 2.89134 7.74921 1.64982 9.47249 1.5848C10.1935 1.55753 10.9162 1.57367 11.6382 1.57544C11.8776 1.57609 11.9805 1.67902 11.9818 1.91845C11.9857 2.63432 11.9859 3.35035 11.9818 4.06622C11.9804 4.31001 11.8805 4.40697 11.6199 4.41343C11.1329 4.42536 10.6454 4.42569 10.1582 4.43295C9.59237 4.44134 9.36939 4.65479 9.35923 5.22077C9.34971 5.75514 9.35713 6.28982 9.35713 6.8437C9.43248 6.84725 9.49573 6.8529 9.55897 6.8529C10.1787 6.85354 10.7984 6.85274 11.4181 6.85354C11.8221 6.85403 11.9104 6.94099 11.9107 7.33708C11.9113 8.04698 11.9118 8.75704 11.9104 9.46694C11.9097 9.79946 11.8274 9.88352 11.4943 9.88497C10.8565 9.88756 10.2187 9.88594 9.58107 9.8861C9.51557 9.8861 9.45023 9.8861 9.35794 9.8861C9.35794 9.97484 9.35794 10.0508 9.35794 10.1268C9.35794 12.01 9.3581 13.8932 9.35794 15.7763C9.35794 16.2831 9.29873 16.3412 8.78534 16.3413C8.09351 16.3415 7.40152 16.342 6.70969 16.3412C6.32748 16.3407 6.23938 16.2539 6.23938 15.8765C6.23874 13.969 6.23906 12.0618 6.23906 10.1546C6.23906 10.0831 6.23906 10.0116 6.23906 9.9074Z" fill="white"/>
</g>
<defs>
<clipPath id="clip0_102_365">
<rect width="16" height="16" fill="white" transform="translate(0 0.955322)"/>
</clipPath>
</defs>
</svg>
