<svg width="10" height="5" viewBox="0 0 10 5" fill="none" xmlns="http://www.w3.org/2000/svg">
<path d="M0.220115 0.1912C0.361098 0.0687746 0.552285 0 0.751634 0C0.950983 0 1.14217 0.0687746 1.28315 0.1912L5.00454 3.42372L8.72592 0.1912C8.86771 0.0722442 9.05762 0.00642175 9.25474 0.00790964C9.45186 0.00939752 9.64042 0.0780765 9.77981 0.199154C9.91919 0.320232 9.99826 0.484021 9.99997 0.655244C10.0017 0.826468 9.92591 0.991425 9.78896 1.11459L5.53606 4.8088C5.39508 4.93123 5.20389 5 5.00454 5C4.80519 5 4.614 4.93123 4.47302 4.8088L0.220115 1.11459C0.0791756 0.992127 0 0.826055 0 0.652894C0 0.479733 0.0791756 0.313661 0.220115 0.1912Z" fill="white"/>
</svg>
