<svg width="30" height="30" viewBox="0 0 30 30" fill="none" xmlns="http://www.w3.org/2000/svg">
<path d="M0.00214224 1.0712C0.00214224 0.787099 0.115 0.514635 0.315889 0.313747C0.516777 0.112858 0.78924 0 1.07334 0H2.01171C3.56923 0 4.46475 1.01335 4.98321 2.02457C5.33671 2.71656 5.59165 3.56067 5.80375 4.29337H27.8597C28.1907 4.29346 28.5173 4.37027 28.8136 4.51777C29.11 4.66526 29.3681 4.87943 29.5678 5.14346C29.7675 5.40749 29.9033 5.7142 29.9645 6.03953C30.0257 6.36485 30.0107 6.69994 29.9207 7.0185L26.7157 18.3196C26.4607 19.2163 25.9203 20.0053 25.1765 20.567C24.4326 21.1288 23.5259 21.4327 22.5937 21.4325H11.7125C10.7726 21.4329 9.8586 21.1241 9.11143 20.5539C8.36426 19.9836 7.82532 19.1835 7.57765 18.2768L6.20223 13.2314C6.19435 13.2088 6.1872 13.186 6.18081 13.1629L3.972 5.67093L3.75776 4.94894C3.54352 4.20767 3.35499 3.5521 3.07219 3.0015C2.73155 2.33736 2.41876 2.14454 2.00957 2.14454H1.0712C0.787098 2.14454 0.514635 2.03168 0.313746 1.83079C0.112858 1.6299 0 1.35744 0 1.07334L0.00214224 1.0712ZM8.24608 12.5844L9.64506 17.7176C9.7691 18.1708 10.0386 18.5706 10.4122 18.8555C10.7858 19.1404 11.2427 19.2947 11.7125 19.2944H22.5958C23.0617 19.294 23.5147 19.1417 23.8862 18.8606C24.2577 18.5796 24.5275 18.1851 24.6547 17.7369L27.8597 6.43576H6.43576L8.24608 12.5823V12.5844ZM15.0053 26.7864C15.0053 27.6387 14.6668 28.4561 14.0641 29.0588C13.4614 29.6614 12.644 30 11.7917 30C10.9394 30 10.1221 29.6614 9.51939 29.0588C8.91672 28.4561 8.57815 27.6387 8.57815 26.7864C8.57815 25.9341 8.91672 25.1167 9.51939 24.514C10.1221 23.9114 10.9394 23.5728 11.7917 23.5728C12.644 23.5728 13.4614 23.9114 14.0641 24.514C14.6668 25.1167 15.0053 25.9341 15.0053 26.7864ZM12.8629 26.7864C12.8629 26.5023 12.7501 26.2298 12.5492 26.0289C12.3483 25.8281 12.0758 25.7152 11.7917 25.7152C11.5076 25.7152 11.2352 25.8281 11.0343 26.0289C10.8334 26.2298 10.7205 26.5023 10.7205 26.7864C10.7205 27.0705 10.8334 27.343 11.0343 27.5439C11.2352 27.7447 11.5076 27.8576 11.7917 27.8576C12.0758 27.8576 12.3483 27.7447 12.5492 27.5439C12.7501 27.343 12.8629 27.0705 12.8629 26.7864ZM25.7173 26.7864C25.7173 27.6387 25.3787 28.4561 24.7761 29.0588C24.1734 29.6614 23.356 30 22.5037 30C21.6514 30 20.834 29.6614 20.2314 29.0588C19.6287 28.4561 19.2901 27.6387 19.2901 26.7864C19.2901 25.9341 19.6287 25.1167 20.2314 24.514C20.834 23.9114 21.6514 23.5728 22.5037 23.5728C23.356 23.5728 24.1734 23.9114 24.7761 24.514C25.3787 25.1167 25.7173 25.9341 25.7173 26.7864ZM23.5749 26.7864C23.5749 26.5023 23.4621 26.2298 23.2612 26.0289C23.0603 25.8281 22.7878 25.7152 22.5037 25.7152C22.2196 25.7152 21.9472 25.8281 21.7463 26.0289C21.5454 26.2298 21.4325 26.5023 21.4325 26.7864C21.4325 27.0705 21.5454 27.343 21.7463 27.5439C21.9472 27.7447 22.2196 27.8576 22.5037 27.8576C22.7878 27.8576 23.0603 27.7447 23.2612 27.5439C23.4621 27.343 23.5749 27.0705 23.5749 26.7864Z" fill="white"/>
</svg>
